<?xml version="1.0" encoding="UTF-8"?>
<svg width="7341px" height="10099px" viewBox="0 0 7341 10099" version="1.1" xmlns="http://www.w3.org/2000/svg" xmlns:xlink="http://www.w3.org/1999/xlink">
    <!-- Generator: Sketch 43.2 (39069) - http://www.bohemiancoding.com/sketch -->
    <title>Group</title>
    <desc>Created with Sketch.</desc>
    <defs></defs>
    <g id="Page-1" stroke="none" stroke-width="1" fill="none" fill-rule="evenodd">
        <g id="Group" fill-rule="nonzero" fill="#C5283D">
            <path d="M1411,10087 C1304,10042 1260,10004 1215,9919 C1193,9877 1188,9708 1209,9666 C1224,9634 1234,9609 1256,9549 C1265,9524 1279,9491 1286,9474 C1293,9458 1358,9294 1430,9112 C1502,8929 1620,8629 1692,8447 C1764,8264 1832,8095 1842,8072 C1852,8048 1861,8025 1861,8019 C1861,8013 1865,8001 1870,7991 C1889,7955 1921,7879 1921,7869 C1921,7863 1925,7851 1930,7841 C1935,7832 1951,7793 1966,7754 C1981,7716 1999,7671 2006,7654 C2013,7638 2056,7530 2101,7414 C2146,7299 2188,7193 2193,7179 C2206,7149 2221,7112 2232,7082 C2237,7069 2246,7047 2252,7032 C2265,7001 2279,6967 2294,6929 C2299,6915 2307,6896 2312,6887 C2317,6877 2321,6865 2321,6859 C2321,6853 2330,6830 2340,6806 C2350,6783 2400,6658 2451,6529 C2502,6400 2549,6281 2556,6264 C2563,6248 2581,6203 2596,6164 C2633,6067 2637,6057 2649,6029 C2678,5960 2871,5468 2871,5464 C2871,5461 2297,5459 1596,5459 C737,5459 305,5456 269,5448 C192,5433 135,5401 86,5347 C-13,5236 -24,5144 42,4971 C87,4853 99,4822 112,4797 C117,4787 121,4775 121,4769 C121,4763 130,4740 140,4716 C150,4693 187,4602 221,4514 C255,4426 289,4341 296,4324 C303,4308 317,4274 326,4249 C335,4224 347,4195 351,4184 C356,4173 396,4070 441,3954 C486,3839 529,3731 536,3714 C543,3698 557,3664 566,3639 C575,3614 587,3584 592,3572 C597,3559 605,3539 610,3527 C615,3514 652,3421 691,3319 C731,3217 769,3121 776,3104 C783,3088 797,3054 806,3029 C815,3004 828,2973 833,2959 C839,2945 848,2924 852,2912 C857,2899 865,2879 870,2867 C875,2854 907,2772 941,2684 C1014,2494 1013,2497 1040,2437 C1052,2411 1061,2385 1061,2379 C1061,2373 1065,2361 1070,2351 C1075,2342 1116,2240 1161,2124 C1206,2009 1247,1904 1252,1892 C1257,1879 1265,1859 1270,1847 C1274,1834 1283,1812 1290,1797 C1311,1746 1319,1725 1401,1514 C1446,1399 1492,1285 1502,1262 C1512,1238 1521,1215 1521,1209 C1521,1203 1525,1191 1530,1181 C1535,1172 1551,1133 1566,1094 C1581,1056 1599,1011 1606,994 C1613,978 1656,870 1701,754 C1746,638 1787,534 1792,522 C1797,509 1805,489 1810,477 C1815,464 1840,400 1866,334 C1892,268 1921,196 1931,173 C1954,123 2028,54 2089,26 L2136,4 L4116,1 C5645,-1 6106,1 6141,10 C6233,35 6296,85 6351,175 C6385,231 6386,237 6386,329 L6386,424 L6315,564 C6277,641 6121,949 5969,1249 C5818,1549 5564,2051 5406,2364 C5248,2678 5038,3093 4940,3287 C4841,3481 4761,3644 4761,3650 C4761,3655 5206,3659 5927,3659 L7092,3659 L7144,3684 C7233,3728 7279,3779 7319,3878 C7333,3912 7341,3953 7341,3990 C7341,4081 7308,4142 7199,4256 C7104,4356 6988,4478 6826,4649 C6776,4701 6699,4782 6656,4829 C6612,4875 6565,4925 6551,4939 C6537,4953 6488,5005 6441,5054 C6291,5212 5989,5531 5911,5613 C5818,5712 5799,5732 5682,5855 C5630,5909 5549,5995 5502,6044 C5456,6094 5379,6175 5332,6224 C5257,6302 5126,6440 4786,6799 C4741,6846 4660,6931 4605,6989 C4550,7047 4472,7130 4431,7174 C4390,7217 4340,7269 4321,7289 C4302,7308 4221,7394 4141,7479 C4061,7564 3978,7652 3956,7674 C3934,7697 3878,7756 3832,7805 C3749,7892 3667,7979 3486,8169 C3347,8315 3035,8645 2951,8734 C2910,8777 2865,8825 2851,8839 C2837,8853 2788,8905 2741,8955 C2694,9004 2573,9132 2471,9239 C2369,9346 2252,9470 2211,9513 C2170,9557 2123,9607 2106,9624 C2090,9642 2038,9696 1992,9745 C1713,10040 1687,10063 1605,10087 C1555,10102 1445,10102 1411,10087 Z" id="Shape"></path>
        </g>
    </g>
</svg>
