<?xml version="1.0" encoding="UTF-8"?>
<svg width="515px" height="556px" viewBox="0 0 515 556" version="1.1" xmlns="http://www.w3.org/2000/svg" xmlns:xlink="http://www.w3.org/1999/xlink">
    <!-- Generator: Sketch 43.2 (39069) - http://www.bohemiancoding.com/sketch -->
    <title>Group</title>
    <desc>Created with Sketch.</desc>
    <defs></defs>
    <g id="Page-1" stroke="none" stroke-width="1" fill="none" fill-rule="evenodd">
        <g id="Group">
            <path d="M292.768,555.273878 C288.65,555.273878 284.592,554.871878 280.639,554.085878 C276.687,553.300878 272.839,552.131878 269.141,550.597878 C265.443,549.063878 261.895,547.164878 258.54,544.919878 C255.187,542.674878 252.028,540.083878 249.109,537.165878 C246.19,534.242878 243.599,531.082878 241.354,527.728878 C239.11,524.373878 237.21,520.824878 235.677,517.127878 C234.143,513.429878 232.974,509.582878 232.188,505.630878 C231.403,501.679878 231,497.622878 231,493.505878 L231,278.790878 C231,278.191878 231.027,277.595878 231.08,277.004878 C231.133,276.412878 231.212,275.824878 231.319,275.241878 C231.424,274.657878 231.556,274.079878 231.714,273.507878 C231.872,272.934878 232.057,272.367878 232.267,271.807878 C232.478,271.248878 232.714,270.701878 232.973,270.167878 C233.232,269.632878 233.514,269.111878 233.82,268.603878 C234.125,268.094878 234.453,267.600878 234.804,267.119878 C235.155,266.639878 235.528,266.173878 235.922,265.721878 L236.042,265.579878 L236.405,265.153878 L236.591,265.130878 L236.779,265.106878 L236.965,265.083878 L237.153,265.060878 C237.841,264.974878 238.534,264.893878 239.23,264.817878 C239.926,264.741878 240.625,264.670878 241.328,264.603878 C242.03,264.537878 242.735,264.476878 243.44,264.419878 C244.146,264.363878 244.853,264.312878 245.561,264.265878 C246.669,264.196878 247.773,264.140878 248.874,264.097878 C249.976,264.054878 251.077,264.025878 252.179,264.010878 C253.283,263.996878 254.388,263.995878 255.499,264.010878 C256.612,264.025878 257.731,264.055878 258.86,264.101878 C259.278,264.117878 259.698,264.135878 260.121,264.155878 C260.544,264.175878 260.97,264.198878 261.4,264.222878 C261.828,264.247878 262.26,264.274878 262.696,264.302878 C263.131,264.331878 263.57,264.361878 264.012,264.394878 L264.198,264.409878 L264.384,264.424878 L264.57,264.440878 L264.755,264.455878 L264.886,264.590878 L265.017,264.724878 L265.148,264.859878 L265.279,264.993878 C265.727,265.460878 266.15,265.944878 266.547,266.444878 C266.946,266.944878 267.317,267.461878 267.662,267.993878 C268.008,268.525878 268.327,269.072878 268.62,269.633878 C268.912,270.195878 269.177,270.771878 269.415,271.361878 C269.654,271.949878 269.864,272.547878 270.043,273.152878 C270.223,273.757878 270.373,274.370878 270.494,274.991878 C270.614,275.611878 270.704,276.238878 270.765,276.872878 C270.826,277.506878 270.856,278.145878 270.856,278.790878 L270.856,493.505878 C270.856,494.966878 270.999,496.406878 271.278,497.809878 C271.556,499.211878 271.971,500.575878 272.515,501.888878 C273.06,503.199878 273.734,504.458878 274.531,505.648878 C275.328,506.837878 276.248,507.958878 277.286,508.993878 C278.321,510.030878 279.441,510.950878 280.63,511.748878 C281.82,512.546878 283.078,513.221878 284.388,513.766878 C285.7,514.311878 287.064,514.726878 288.466,515.005878 C289.868,515.284878 291.307,515.428878 292.768,515.428878 C294.23,515.428878 295.669,515.284878 297.073,515.005878 C298.475,514.726878 299.84,514.311878 301.153,513.766878 C302.465,513.221878 303.725,512.546878 304.915,511.748878 C306.105,510.950878 307.226,510.030878 308.261,508.993878 C309.298,507.958878 310.218,506.837878 311.016,505.648878 C311.813,504.458878 312.487,503.199878 313.032,501.888878 C313.576,500.575878 313.991,499.211878 314.269,497.809878 C314.548,496.406878 314.691,494.966878 314.691,493.505878 C314.691,492.176878 314.821,490.866878 315.074,489.591878 C315.328,488.316878 315.704,487.074878 316.2,485.881878 C316.695,484.688878 317.308,483.544878 318.032,482.462878 C318.756,481.381878 319.593,480.362878 320.535,479.422878 C321.477,478.482878 322.496,477.646878 323.578,476.922878 C324.661,476.198878 325.805,475.586878 326.998,475.091878 C328.191,474.596878 329.432,474.219878 330.707,473.966878 C331.982,473.712878 333.29,473.582878 334.619,473.582878 C335.947,473.582878 337.255,473.712878 338.53,473.966878 C339.805,474.219878 341.045,474.596878 342.239,475.091878 C343.432,475.586878 344.577,476.198878 345.659,476.922878 C346.741,477.646878 347.759,478.482878 348.702,479.422878 C349.642,480.364878 350.478,481.383878 351.202,482.465878 C351.925,483.547878 352.537,484.692878 353.033,485.885878 C353.528,487.078878 353.905,488.319878 354.158,489.594878 C354.412,490.868878 354.541,492.178878 354.541,493.505878 C354.541,497.623878 354.139,501.681878 353.353,505.633878 C352.568,509.586878 351.399,513.433878 349.865,517.131878 C348.33,520.828878 346.431,524.376878 344.185,527.731878 C341.94,531.084878 339.348,534.244878 336.428,537.165878 C333.508,540.083878 330.349,542.674878 326.995,544.919878 C323.642,547.164878 320.094,549.063878 316.396,550.597878 C312.698,552.131878 308.85,553.300878 304.897,554.085878 C300.945,554.871878 296.886,555.273878 292.768,555.273878 Z" id="Combined-Shape" fill="#2E4057"></path>
            <path d="M514.519,302.818 L513.653,301.818 L511.059,298.819 C511.035,298.791 510.439,298.101 509.333,296.911 C508.227,295.722 506.608,294.033 504.541,292.011 C502.474,289.987 499.957,287.63 497.052,285.102 C494.146,282.574 490.854,279.875 487.234,277.169 C483.989,274.74 480.317,272.195 476.314,269.743 C472.311,267.291 467.976,264.933 463.403,262.877 C458.831,260.823 454.021,259.071 449.068,257.834 C444.115,256.596 439.02,255.873 433.874,255.873 C429.96,255.873 426.043,256.181 422.131,256.795 C418.218,257.41 414.31,258.33 410.411,259.555 C406.514,260.779 402.627,262.308 398.758,264.139 C394.889,265.97 391.037,268.103 387.21,270.535 C384.124,272.495 381.231,274.535 378.542,276.591 C375.852,278.646 373.364,280.719 371.089,282.741 C368.813,284.765 366.749,286.738 364.905,288.599 C363.062,290.459 361.438,292.206 360.043,293.774 L359.201,294.721 L358.359,295.667 L357.517,296.612 L356.675,297.559 L356.655,296.293 L356.637,295.028 L356.617,293.764 L356.598,292.498 C356.391,278.747 355.35,264.949 353.483,251.13 C351.616,237.311 348.922,223.47 345.408,209.632 C341.895,195.794 337.56,181.958 332.411,168.15 C327.262,154.342 321.299,140.561 314.527,126.831 C309.128,115.883 303.584,105.721 298.112,96.407 C292.642,87.093 287.243,78.627 282.135,71.07 C277.026,63.514 272.207,56.866 267.896,51.188 C263.584,45.511 259.778,40.803 256.697,37.127 L256.013,36.312 L255.328,35.497 L253.96,33.867 L255.024,33.874 L256.09,33.882 L257.155,33.89 L258.22,33.897 C266.754,33.97 275.22,34.458 283.604,35.356 C291.989,36.255 300.292,37.565 308.5,39.284 C316.707,41.002 324.818,43.129 332.82,45.661 C340.821,48.193 348.713,51.131 356.48,54.471 C364.246,57.81 371.817,61.521 379.181,65.596 C386.545,69.671 393.702,74.11 400.641,78.904 C407.579,83.698 414.298,88.848 420.786,94.344 C427.273,99.841 433.531,105.684 439.545,111.866 C445.561,118.053 451.242,124.484 456.582,131.149 C461.921,137.813 466.918,144.711 471.563,151.829 C476.209,158.946 480.504,166.284 484.44,173.83 C488.377,181.375 491.955,189.129 495.165,197.078 C498.376,205.031 501.19,213.108 503.607,221.294 C506.023,229.481 508.042,237.776 509.658,246.167 C511.274,254.557 512.49,263.042 513.301,271.607 C514.112,280.172 514.519,288.817 514.519,297.527 L514.519,302.818 Z" id="Combined-Shape" fill="#F4D35E"></path>
            <path d="M230.94,31.339 L230.94,23.649 C230.94,22.107 231.091,20.588 231.385,19.108 C231.68,17.628 232.117,16.188 232.692,14.804 C233.268,13.419 233.979,12.091 234.82,10.836 C235.662,9.581 236.634,8.398 237.729,7.305 C238.821,6.212 240.004,5.243 241.261,4.403 C242.517,3.562 243.845,2.852 245.229,2.278 C246.615,1.704 248.056,1.266 249.536,0.972 C251.016,0.678 252.535,0.527 254.077,0.527 C255.619,0.527 257.139,0.678 258.619,0.972 C260.1,1.266 261.54,1.704 262.925,2.278 C264.31,2.852 265.639,3.562 266.895,4.403 C268.15,5.243 269.334,6.212 270.427,7.305 C271.521,8.398 272.49,9.581 273.332,10.836 C274.173,12.091 274.884,13.419 275.458,14.804 C276.032,16.188 276.471,17.628 276.765,19.108 C277.059,20.588 277.21,22.107 277.21,23.649 L277.21,30.99 L276.683,30.952 L276.156,30.914 L275.629,30.875 L275.103,30.836 C274.312,30.778 273.516,30.722 272.715,30.669 C271.915,30.617 271.11,30.568 270.303,30.522 C269.496,30.477 268.687,30.435 267.875,30.397 C267.063,30.358 266.251,30.324 265.438,30.293 C263.691,30.225 261.956,30.176 260.226,30.146 C258.496,30.116 256.771,30.104 255.048,30.11 C253.325,30.117 251.602,30.143 249.874,30.186 C248.146,30.229 246.413,30.291 244.67,30.37 C243.722,30.413 242.767,30.46 241.807,30.514 C240.847,30.568 239.882,30.627 238.914,30.692 C237.946,30.757 236.975,30.828 236.002,30.904 C235.028,30.98 234.054,31.062 233.078,31.149 L232.544,31.197 L232.009,31.244 L231.475,31.291 L230.94,31.339 Z" id="Combined-Shape" fill="#F6D8AE"></path>
            <path d="M152.244,296.897 L152.282,294.605 L152.302,293.46 L152.32,292.313 C152.533,278.907 153.558,265.447 155.386,251.956 C157.215,238.466 159.849,224.945 163.281,211.418 C166.714,197.891 170.945,184.357 175.971,170.841 C180.995,157.325 186.813,143.826 193.417,130.368 C198.68,119.643 204.083,109.683 209.416,100.548 C214.748,91.414 220.01,83.106 224.989,75.687 C229.969,68.268 234.666,61.737 238.869,56.157 C243.072,50.578 246.782,45.948 249.786,42.331 L250.54,41.423 L250.917,40.97 L251.294,40.516 L252.801,42.331 C255.811,45.953 259.525,50.589 263.734,56.176 C267.943,61.763 272.646,68.301 277.631,75.728 C282.616,83.154 287.882,91.469 293.218,100.609 C298.554,109.75 303.959,119.716 309.222,130.445 C315.828,143.916 321.647,157.429 326.671,170.959 C331.695,184.49 335.925,198.039 339.354,211.583 C342.782,225.126 345.41,238.664 347.232,252.172 C349.054,265.681 350.069,279.159 350.271,292.586 L350.303,294.61 L350.317,295.623 L350.333,296.636 L348.721,295.41 L347.108,294.185 C345.171,292.706 342.92,291.059 340.373,289.305 C337.826,287.552 334.983,285.69 331.859,283.784 C328.735,281.878 325.331,279.925 321.662,277.988 C317.993,276.051 314.06,274.129 309.878,272.283 C304.681,269.988 299.47,267.975 294.255,266.248 C289.039,264.52 283.82,263.077 278.605,261.921 C273.391,260.766 268.181,259.897 262.985,259.317 C257.789,258.737 252.607,258.446 247.448,258.446 C242.229,258.446 237.058,258.734 231.946,259.308 C226.834,259.881 221.781,260.74 216.796,261.884 C211.811,263.027 206.893,264.454 202.051,266.163 C197.209,267.873 192.443,269.863 187.763,272.135 C183.794,274.059 180.126,276.075 176.774,278.092 C173.423,280.109 170.389,282.128 167.688,284.055 C164.987,285.981 162.621,287.817 160.605,289.471 C158.59,291.124 156.925,292.595 155.628,293.79 L154.781,294.567 L153.936,295.344 L153.09,296.12 L152.244,296.897 Z" id="Combined-Shape" fill="#DA4167"></path>
            <path d="M0,303.31 L0,297.568 C0,289.072 0.39,280.633 1.167,272.265 C1.945,263.897 3.109,255.601 4.658,247.39 C6.207,239.179 8.14,231.053 10.456,223.028 C12.771,215.003 15.467,207.078 18.543,199.268 C21.62,191.457 25.047,183.831 28.818,176.402 C32.588,168.974 36.704,161.743 41.154,154.721 C45.604,147.699 50.39,140.887 55.505,134.296 C60.62,127.706 66.063,121.337 71.827,115.203 C77.571,109.088 83.557,103.287 89.772,97.809 C95.987,92.33 102.431,87.174 109.092,82.348 C115.754,77.522 122.634,73.028 129.72,68.872 C136.806,64.716 144.098,60.899 151.584,57.429 C159.07,53.96 166.681,50.869 174.406,48.161 C182.13,45.453 189.967,43.127 197.904,41.187 C205.84,39.247 213.875,37.692 221.996,36.527 C230.117,35.361 238.322,34.584 246.599,34.2 L247.718,34.15 L248.837,34.1 L249.956,34.05 L251.075,34 L250.356,34.857 L249.637,35.715 L248.917,36.572 L248.199,37.43 C245.122,41.108 241.322,45.818 237.017,51.498 C232.711,57.177 227.902,63.826 222.802,71.383 C217.704,78.94 212.316,87.405 206.857,96.715 C201.398,106.026 195.867,116.183 190.481,127.123 C183.723,140.849 177.772,154.623 172.633,168.422 C167.496,182.221 163.17,196.044 159.665,209.868 C156.16,223.691 153.474,237.515 151.613,251.314 C149.752,265.114 148.717,278.89 148.513,292.616 L148.483,294.815 L148.467,295.915 L148.452,297.015 L147.64,296.269 L146.83,295.523 L146.018,294.777 L145.207,294.031 C143.721,292.666 141.998,291.146 140.047,289.527 C138.098,287.908 135.923,286.19 133.536,284.431 C131.149,282.671 128.548,280.868 125.748,279.079 C122.949,277.29 119.95,275.516 116.763,273.811 C112.806,271.694 108.845,269.837 104.887,268.244 C100.929,266.651 96.974,265.32 93.029,264.255 C89.082,263.189 85.147,262.388 81.227,261.853 C77.307,261.319 73.405,261.05 69.525,261.05 C64.826,261.05 60.248,261.686 55.853,262.773 C51.458,263.86 47.248,265.398 43.287,267.203 C39.326,269.008 35.612,271.08 32.21,273.234 C28.81,275.388 25.721,277.624 23.009,279.758 C20.053,282.085 17.377,284.412 15.02,286.601 C12.663,288.789 10.625,290.839 8.948,292.609 C7.27,294.381 5.952,295.874 5.035,296.948 C4.117,298.023 3.599,298.68 3.522,298.778 L2.642,299.912 L0,303.31 Z" id="Combined-Shape" fill="#083D77"></path>
        </g>
    </g>
</svg>