<?xml version="1.0" encoding="UTF-8"?>
<svg width="457px" height="439px" viewBox="0 0 457 439" version="1.1" xmlns="http://www.w3.org/2000/svg" xmlns:xlink="http://www.w3.org/1999/xlink">
    <!-- Generator: Sketch 43.2 (39069) - http://www.bohemiancoding.com/sketch -->
    <title>Group</title>
    <desc>Created with Sketch.</desc>
    <defs></defs>
    <g id="Page-1" stroke="none" stroke-width="1" fill="none" fill-rule="evenodd">
        <g id="Group" fill-rule="nonzero" fill="#0B7A75">
            <path d="M441.11,243.677 C451.578,231.687 456.814,217.508 456.814,201.137 C456.814,186.291 451.382,173.445 440.555,162.59 C429.706,151.736 416.86,146.312 402.014,146.312 L322.932,146.312 C323.692,143.648 324.454,141.364 325.214,139.461 C325.967,137.558 327.025,135.462 328.352,133.178 C329.68,130.893 330.635,129.179 331.204,128.039 C334.629,121.571 337.251,116.238 339.061,112.054 C340.868,107.862 342.667,102.154 344.481,94.921 C346.292,87.692 347.192,80.456 347.192,73.223 C347.192,68.657 347.137,64.942 347.047,62.089 C346.958,59.234 346.473,54.95 345.624,49.239 C344.762,43.531 343.618,38.772 342.194,34.967 C340.764,31.161 338.478,26.875 335.343,22.12 C332.201,17.356 328.396,13.507 323.919,10.555 C319.443,7.605 313.735,5.131 306.788,3.134 C299.834,1.135 291.987,0.136 283.226,0.136 C278.278,0.136 273.999,1.945 270.379,5.562 C266.573,9.368 263.332,14.126 260.67,19.834 C258.004,25.545 256.147,30.494 255.099,34.683 C254.052,38.87 252.861,44.677 251.534,52.098 C249.815,60.096 248.536,65.85 247.674,69.371 C246.819,72.892 245.149,77.507 242.677,83.216 C240.2,88.929 237.253,93.494 233.826,96.922 C227.546,103.202 217.935,114.623 204.989,131.181 C195.66,143.361 186.049,154.876 176.152,165.726 C166.253,176.578 159.021,182.192 154.454,182.573 C149.699,182.953 145.606,184.904 142.179,188.427 C138.752,191.948 137.039,196.089 137.039,200.846 L137.039,383.856 C137.039,388.805 138.846,393.038 142.463,396.559 C146.078,400.084 150.361,401.939 155.31,402.13 C161.971,402.321 177.008,406.504 200.421,414.696 C215.075,419.637 226.541,423.402 234.821,425.968 C243.099,428.534 254.67,431.296 269.505,434.25 C284.354,437.199 298.056,438.678 310.615,438.678 L315.47,438.678 L337.17,438.678 L347.446,438.678 C372.767,438.298 391.507,430.872 403.693,416.41 C414.729,403.275 419.39,386.049 417.683,364.731 C425.105,357.689 430.248,348.747 433.099,337.895 C436.33,326.291 436.33,315.155 433.099,304.498 C441.853,292.887 445.946,279.849 445.371,265.383 C445.395,259.286 443.971,252.055 441.11,243.677 Z" id="Shape"></path>
            <path d="M100.5,182.864 L18.276,182.864 C13.324,182.864 9.041,184.673 5.425,188.29 C1.809,191.905 0,196.188 0,201.137 L0,383.869 C0,388.811 1.809,393.096 5.426,396.716 C9.045,400.327 13.328,402.137 18.277,402.137 L100.5,402.137 C105.448,402.137 109.729,400.327 113.347,396.716 C116.963,393.096 118.771,388.812 118.771,383.869 L118.771,201.137 C118.771,196.188 116.962,191.906 113.347,188.29 C109.73,184.672 105.449,182.864 100.5,182.864 Z M67.665,360.308 C64.049,363.829 59.767,365.589 54.818,365.589 C49.678,365.589 45.347,363.829 41.828,360.308 C38.307,356.787 36.547,352.458 36.547,347.318 C36.547,342.37 38.306,338.086 41.828,334.471 C45.348,330.854 49.678,329.043 54.818,329.043 C59.767,329.043 64.049,330.854 67.665,334.471 C71.282,338.085 73.091,342.369 73.091,347.318 C73.091,352.458 71.286,356.786 67.665,360.308 Z" id="Shape"></path>
        </g>
    </g>
</svg>